<svg width="20" height="19" viewBox="0 0 20 19" fill="none" xmlns="http://www.w3.org/2000/svg">
<path fill-rule="evenodd" clip-rule="evenodd" d="M10 2.72795C8.627 1.02598 6.53793 0.278072 4.60702 0.557014C3.38263 0.733892 2.21629 1.32551 1.35895 2.34725C0.498879 3.37225 0 4.76912 0 6.47231C0 9.94563 2.56031 12.9616 4.83471 14.9884C6.00373 16.0301 7.16813 16.8728 8.03809 17.4542C8.47404 17.7456 8.83849 17.9729 9.09584 18.1286C9.22457 18.2064 9.32667 18.2664 9.39771 18.3075C9.43323 18.3281 9.461 18.344 9.48047 18.355L9.50338 18.368L9.51004 18.3717L9.51214 18.3729C9.51243 18.3731 9.51343 18.3736 10 17.5L9.51343 18.3736C9.81593 18.5421 10.1841 18.5421 10.4866 18.3736L10 17.5C10.4866 18.3736 10.4863 18.3738 10.4866 18.3736L10.49 18.3717L10.4966 18.368L10.5195 18.355C10.539 18.344 10.5668 18.3281 10.6023 18.3075C10.6733 18.2664 10.7754 18.2064 10.9042 18.1286C11.1615 17.9729 11.526 17.7456 11.9619 17.4542C12.8319 16.8728 13.9963 16.0301 15.1653 14.9884C17.4397 12.9616 20 9.94563 20 6.47231C20 4.76912 19.5011 3.37225 18.641 2.34725C17.7837 1.32551 16.6174 0.733892 15.393 0.557014C13.4621 0.278072 11.373 1.02598 10 2.72795ZM10 16.3374C9.7769 16.2004 9.48681 16.0169 9.14941 15.7914C8.33187 15.245 7.24627 14.4585 6.1653 13.4952C3.93969 11.5119 2 9.01412 2 6.47231C2 5.16795 2.37612 4.24649 2.89105 3.63283C3.40871 3.0159 4.11737 2.64851 4.89298 2.53647C6.45319 2.31107 8.26088 3.12661 9.07966 5.0533C9.23655 5.42248 9.59886 5.66218 10 5.66218C10.4011 5.66218 10.7635 5.42248 10.9203 5.0533C11.7391 3.12661 13.5468 2.31107 15.107 2.53647C15.8826 2.64851 16.5913 3.0159 17.109 3.63283C17.6239 4.24649 18 5.16795 18 6.47231C18 9.01412 16.0603 11.5119 13.8347 13.4952C12.7537 14.4585 11.6681 15.245 10.8506 15.7914C10.5132 16.0169 10.2231 16.2004 10 16.3374Z" fill="white"/>
</svg>
